<!DOCTYPE svg PUBLIC "-//W3C//DTD SVG 1.1//EN" "http://www.w3.org/Graphics/SVG/1.1/DTD/svg11.dtd">
<!-- Uploaded to: SVG Repo, www.svgrepo.com, Transformed by: SVG Repo Mixer Tools -->
<svg fill="#e60a74" height="64px" width="64px" version="1.1" id="Capa_1" xmlns="http://www.w3.org/2000/svg" xmlns:xlink="http://www.w3.org/1999/xlink" viewBox="-29.36 -29.36 352.29 352.29" xml:space="preserve" stroke="#e60a74" transform="matrix(1, 0, 0, 1, 0, 0)rotate(0)">
<g id="SVGRepo_bgCarrier" stroke-width="0"/>
<g id="SVGRepo_tracerCarrier" stroke-linecap="round" stroke-linejoin="round" stroke="#CCCCCC" stroke-width="0.587146"/>
<g id="SVGRepo_iconCarrier"> <path d="M229.62,140.665v0.093h-69.718c-0.086-1-0.139-1.69-0.139-2.479c0-11.511,9.364-20.95,20.857-20.95l43.12,0.015 c28.053,0,50.876-22.741,50.876-50.794s-22.823-50.793-50.876-50.793h-25.606c-8.284,0-15,6.716-15,15s6.716,15,15,15h25.606 c11.511,0,20.876,9.264,20.876,20.774s-9.365,20.826-20.858,20.826l-43.12-0.077c-28.053,0-50.875,22.958-50.875,51.011 c0,0.782,0.024,1.466,0.059,2.466H63.62v-0.093C27.62,143.237,0,172.986,0,209.211c0,37.908,30.905,68.604,68.813,68.604 c24.786,0,46.61-13.057,58.708-33.057h38.864c12.098,20,33.857,33.057,58.644,33.057c37.908,0,68.543-30.768,68.543-68.676 C293.573,172.914,265.62,143.237,229.62,140.665z M101.62,218.758h-24v23h-18v-23h-24v-19h24v-23h18v23h24V218.758z M194.24,218.559 c-6.429,0-11.659-5.23-11.659-11.659s5.23-11.658,11.659-11.658s11.658,5.229,11.658,11.658S200.669,218.559,194.24,218.559z M225.029,249.348c-6.429,0-11.659-5.23-11.659-11.659s5.23-11.658,11.659-11.658s11.658,5.229,11.658,11.658 S231.458,249.348,225.029,249.348z M225.029,187.77c-6.429,0-11.659-5.23-11.659-11.659s5.23-11.658,11.659-11.658 s11.658,5.229,11.658,11.658S231.458,187.77,225.029,187.77z M255.818,218.559c-6.429,0-11.659-5.23-11.659-11.659 s5.23-11.658,11.659-11.658s11.658,5.229,11.658,11.658S262.247,218.559,255.818,218.559z"/> </g>
</svg>